# Blender 4.2.0
# www.blender.org
o Cube
v -1.630312 -0.007529 0.000000
v 0.819152 0.003774 1.414214
v 0.819152 0.003774 -1.414214
v 0.819152 0.003774 -1.414214
v -1.630312 -0.007529 0.000000
v -0.924832 1.000000 -0.000000
v 0.461753 1.000000 0.803149
v 0.461753 1.000000 -0.803149
v 0.461753 1.000000 0.803149
v 0.461753 1.000000 -0.803149
v -0.924832 1.000000 -0.000000
vn 0.0046 -1.0000 -0.0000
vn -0.4729 0.3312 0.8165
vn -0.4729 0.3312 -0.8165
vn 0.9413 0.3377 -0.0000
vn -0.0000 1.0000 -0.0000
vn -0.0000 -0.0000 1.0000
s 0
f 2//1 1//1 3//1
f 1//2 9//2 6//2
f 5//3 10//3 4//3
f 8//4 2//4 3//4
f 8//5 11//5 7//5
f 1//2 2//2 9//2
f 5//3 11//3 10//3
f 8//4 7//4 2//4
f 8//6 10//6 11//6
